<?xml version="1.0" encoding="UTF-8" standalone="no"?>
<!-- Generator: Adobe Illustrator 15.0.0, SVG Export Plug-In  -->

<svg
   xmlns:dc="http://purl.org/dc/elements/1.1/"
   xmlns:cc="http://creativecommons.org/ns#"
   xmlns:rdf="http://www.w3.org/1999/02/22-rdf-syntax-ns#"
   xmlns:svg="http://www.w3.org/2000/svg"
   xmlns="http://www.w3.org/2000/svg"
   xmlns:sodipodi="http://sodipodi.sourceforge.net/DTD/sodipodi-0.dtd"
   xmlns:inkscape="http://www.inkscape.org/namespaces/inkscape"
   version="1.1"
   x="0px"
   y="0px"
   width="468"
   height="60"
   viewBox="-12.124 -5.599 468 60"
   overflow="visible"
   enable-background="new -12.124 -5.599 631 102"
   xml:space="preserve"
   id="svg2"
   inkscape:version="0.48.2 r9819"
   sodipodi:docname="WorldSinglesdotcom_logo.svg"
   style="overflow:visible"><metadata
   id="metadata268"><rdf:RDF><cc:Work
       rdf:about=""><dc:format>image/svg+xml</dc:format><dc:type
         rdf:resource="http://purl.org/dc/dcmitype/StillImage" /><dc:title></dc:title></cc:Work></rdf:RDF></metadata><sodipodi:namedview
   pagecolor="#ffffff"
   bordercolor="#666666"
   borderopacity="1"
   objecttolerance="10"
   gridtolerance="10"
   guidetolerance="10"
   inkscape:pageopacity="0"
   inkscape:pageshadow="2"
   inkscape:window-width="640"
   inkscape:window-height="480"
   id="namedview266"
   showgrid="false"
   inkscape:zoom="1"
   inkscape:cx="242.14669"
   inkscape:cy="51"
   inkscape:window-x="154"
   inkscape:window-y="22"
   inkscape:window-maximized="0"
   inkscape:current-layer="svg2" />
<defs
   id="defs4">
</defs>
<path
   display="none"
   d="m 415.41,-20.469 c -6.881,-1.115 -12.964,0.57 -16.571,2.011 -0.674,0.287 -11.456,5.102 -11.456,18.806 v 28.109 h 12.565 V 6.593 c 0,-0.172 0.011,-0.333 0.013,-0.502 l -0.01,0.014 c 0,0 -0.745,-15.084 10.592,-15.084 7.602,0.023 9.248,6.572 9.546,10.582 v 26.855 h 12.813 V -3.303 c 0,0 0.163,-13.942 -17.492,-17.166 z"
   id="path6"
   inkscape:connector-curvature="0"
   style="fill:#f59824;display:none" />
<rect
   x="370.35699"
   y="-17.374001"
   display="none"
   width="12.068"
   height="45.831001"
   id="rect8"
   style="fill:#f59824;display:none" />
<rect
   x="370.35599"
   y="-33.299999"
   display="none"
   width="12.133"
   height="10.045"
   id="rect10"
   style="fill:#f59824;display:none" />
<path
   display="none"
   d="m 477.066,-9.244 -0.979,-1.183 c -3.157,-3.797 -8.003,-5.973 -10.62,-6.935 -0.335,-0.128 -0.678,-0.242 -1.021,-0.353 -0.792,-0.259 -1.305,-0.391 -1.34,-0.391 -0.004,0 -0.004,0 -0.004,0 -1.572,-0.377 -3.209,-0.572 -4.872,-0.572 -6.542,0 -11.729,2.221 -15.408,6.59 -3.749,4.531 -5.649,10.667 -5.649,18.245 0,7.039 1.875,12.776 5.569,17.053 1.832,2.136 3.975,3.692 6.362,4.619 2.467,0.959 5.291,1.523 8.413,1.677 0.388,0.029 0.749,0.041 1.099,0.041 0.169,0 0.33,-0.003 0.496,-0.01 0.489,-0.019 0.953,-0.063 1.379,-0.137 l 0.184,-0.02 0.067,0.005 c 1.124,-0.062 7.052,-0.708 13.508,-7.568 l 0.957,-1.02 v 6.671 c 0,2.129 -0.414,3.915 -1.231,5.31 -0.809,1.375 -1.863,2.477 -3.134,3.266 -1.22,0.763 -2.603,1.291 -4.108,1.569 -0.992,0.182 -1.984,0.302 -2.958,0.354 l -0.852,10.643 c 0.46,0.006 0.902,0.009 1.338,0.009 0.849,0 1.646,-0.011 2.387,-0.032 1.47,-0.04 2.816,-0.133 4.003,-0.27 1.184,-0.138 2.27,-0.338 3.235,-0.588 0.959,-0.245 1.912,-0.588 2.842,-1.017 1.396,-0.602 2.779,-1.499 4.121,-2.666 1.369,-1.192 2.605,-2.538 3.677,-4.001 1.07,-1.461 1.932,-3.001 2.565,-4.575 0.614,-1.534 0.93,-3.018 0.93,-4.41 v -48.434 h -10.956 v 8.13 z m -2.732,20.656 c -0.534,1.569 -1.343,3.064 -2.398,4.424 -2.153,3.039 -5.243,4.577 -9.183,4.577 -3.736,0 -6.763,-1.368 -9.003,-4.07 -2.21,-2.711 -3.329,-6.241 -3.329,-10.492 0,-4.442 1.062,-8.143 3.163,-10.993 2.148,-2.947 5.191,-4.439 9.045,-4.439 3.554,0 6.591,1.397 9.025,4.151 2.361,2.634 3.554,6.095 3.554,10.292 0,2.427 -0.292,4.625 -0.874,6.55 z"
   id="path12"
   inkscape:connector-curvature="0"
   style="fill:#f59824;display:none" />
<path
   display="none"
   d="M 551.845,8.571 C 551.842,7.802 551.833,7.053 551.811,6.316 551.79,5.523 551.785,4.723 551.785,3.931 V -4 c 0,-1.856 -0.329,-3.697 -0.983,-5.471 -0.138,-0.386 -0.299,-0.76 -0.466,-1.128 -1.285,-2.646 -3.717,-5.586 -8.293,-7.551 -0.007,-0.001 -0.01,-0.003 -0.015,-0.004 -0.978,-0.413 -1.939,-0.746 -2.886,-1.018 -0.034,-0.01 -0.064,-0.02 -0.099,-0.03 -0.024,-0.006 -0.045,-0.013 -0.068,-0.021 -6.858,-1.925 -12.75,-0.439 -16.178,0.932 -0.406,0.12 -0.811,0.257 -1.208,0.433 -1.287,0.567 -2.505,1.334 -3.617,2.278 -1.143,0.973 -2.2,2.107 -3.143,3.377 -0.964,1.295 -1.795,2.666 -2.478,4.068 -0.677,1.392 -1.205,2.829 -1.58,4.272 -0.362,1.416 -0.546,2.767 -0.546,4.013 v 5.144 c 0,3.832 0.537,7.29 1.596,10.276 1.039,2.927 2.682,5.465 4.884,7.551 4.351,4.236 10.485,6.385 18.233,6.385 3.163,0 6.082,-0.243 8.679,-0.721 1.271,-0.238 2.526,-0.513 3.728,-0.817 0.847,-0.214 1.67,-0.474 2.452,-0.768 v -8.505 c -1.086,0.435 -2.488,0.916 -4.178,1.431 -2.881,0.929 -5.998,1.398 -9.257,1.398 -5.142,0 -9.068,-1.382 -11.681,-4.113 -1.496,-1.621 -2.587,-4.013 -3.245,-7.112 l -0.011,-0.056 V 8.569 h 30.42 z m -30.769,-6.686 0.104,-0.643 0.141,-0.863 c 0.434,-2.778 1.276,-5.068 2.502,-6.795 2.112,-3.044 5.018,-4.589 8.638,-4.589 3.383,0 6.036,1.015 7.891,3.017 1.874,2.017 2.847,4.917 2.89,8.614 l 0.015,0.816 0.006,0.434 h -5.898 v 0.009 h -16.289 z"
   id="path14"
   inkscape:connector-curvature="0"
   style="fill:#f59824;display:none" />
<path
   display="none"
   d="m 501.909,-39.697 c -1.07,0.818 -2.155,1.806 -3.222,2.929 -1.052,1.113 -2.027,2.335 -2.895,3.634 -0.851,1.278 -1.543,2.633 -2.062,4.034 -0.501,1.363 -0.758,2.722 -0.758,4.037 v 53.521 h 12.691 v -70.376 c -0.232,0.087 -0.478,0.195 -0.733,0.317 -0.944,0.454 -1.959,1.095 -3.021,1.904 z"
   id="path16"
   inkscape:connector-curvature="0"
   style="fill:#f59824;display:none" />
<path
   display="none"
   d="m 590.22,6.412 c -1.967,-2.189 -5.206,-3.869 -9.62,-4.991 -2.235,-0.537 -4.127,-1.044 -5.626,-1.51 -1.517,-0.466 -2.691,-0.906 -3.484,-1.303 -2.357,-1.11 -2.852,-2.74 -2.852,-3.911 0,-1.895 0.905,-3.366 2.625,-4.26 1.478,-0.76 3.641,-1.131 6.609,-1.131 2.295,0 4.745,0.26 7.298,0.776 1.62,0.376 3.089,0.831 4.376,1.354 l 0.685,-8.135 c -0.626,-0.186 -1.311,-0.358 -2.038,-0.519 -1.146,-0.243 -2.408,-0.488 -3.792,-0.735 -2.767,-0.481 -5.507,-0.725 -8.139,-0.725 -5.812,0 -10.695,1.283 -14.52,3.813 -3.693,2.455 -5.488,5.812 -5.488,10.267 0,3.998 1.156,6.847 3.528,8.716 1.271,0.998 2.693,1.836 4.231,2.492 1.569,0.67 3.329,1.232 5.221,1.664 1.886,0.423 3.53,0.875 4.885,1.345 1.337,0.464 2.447,0.939 3.31,1.419 1.858,1.117 2.8,2.639 2.8,4.53 0,2.215 -1.015,3.913 -2.849,4.777 -1.654,0.784 -3.761,1.182 -6.258,1.182 -3.445,0 -6.717,-0.533 -9.727,-1.582 l -2.991,-1.047 -0.536,-0.186 c -0.14,-0.047 -0.271,-0.093 -0.4,-0.141 l -0.756,8.879 c 0.652,0.221 1.387,0.437 2.185,0.643 1.126,0.287 2.429,0.531 3.982,0.742 1.443,0.205 2.951,0.368 4.474,0.489 1.493,0.122 3.052,0.183 4.632,0.183 6.715,0 11.985,-1.316 15.672,-3.914 3.669,-2.576 5.451,-6.096 5.451,-10.76 -10e-4,-3.444 -0.972,-6.278 -2.888,-8.421 z"
   id="path18"
   inkscape:connector-curvature="0"
   style="fill:#f59824;display:none" />
<path
   display="none"
   d="m 204.331,-16.942 c -2.867,-1.153 -6.175,-1.735 -9.83,-1.735 -3.657,0 -6.976,0.583 -9.859,1.735 -2.868,1.14 -5.451,2.848 -7.684,5.077 -4.387,4.31 -6.61,10.187 -6.61,17.466 0,7.242 2.223,13.099 6.612,17.41 4.352,4.312 10.254,6.497 17.541,6.497 7.284,0 13.165,-2.187 17.484,-6.498 4.384,-4.318 6.607,-10.174 6.607,-17.409 0,-7.275 -2.223,-13.153 -6.615,-17.473 -2.214,-2.213 -4.786,-3.92 -7.646,-5.07 z m -0.781,33.656 c -2.11,2.906 -5.157,4.379 -9.05,4.379 -3.846,0 -6.906,-1.468 -9.097,-4.36 -2.063,-2.733 -3.111,-6.478 -3.111,-11.132 0,-4.771 1.027,-8.557 3.055,-11.266 2.194,-2.845 5.272,-4.287 9.153,-4.287 3.885,0 6.947,1.448 9.103,4.299 2.019,2.703 3.043,6.487 3.043,11.253 0,4.651 -1.042,8.394 -3.096,11.114 z"
   id="path20"
   inkscape:connector-curvature="0"
   style="fill:#f0f0f0;display:none" />
<path
   display="none"
   d="m 235.374,-17.517 c -0.292,0.098 -0.58,0.205 -0.868,0.328 -0.391,0.159 -0.622,0.264 -0.622,0.264 l 0.022,0.007 c -0.576,0.28 -1.148,0.589 -1.708,0.965 -1.808,1.205 -3.436,2.718 -4.841,4.494 -1.399,1.767 -2.535,3.711 -3.378,5.781 -0.822,2.033 -1.238,4.016 -1.238,5.89 v 28.246 h 12.564 V 9.442 c 0,-2.979 0.411,-5.676 1.22,-8.013 0.827,-2.402 2.082,-4.385 3.729,-5.897 1.661,-1.523 3.744,-2.518 6.195,-2.958 0.792,-0.139 1.625,-0.21 2.472,-0.21 1.315,0 2.744,0.166 4.254,0.495 l 0.599,-11.097 c -8.373,-2.201 -15.442,-0.327 -18.4,0.721 z"
   id="path22"
   inkscape:connector-curvature="0"
   style="fill:#f0f0f0;display:none" />
<polygon
   display="none"
   points="150.738,59.402 150.738,59.498 150.659,59.498 150.557,59.07 150.422,58.494 142.481,24.626 126.635,24.626 118.515,58.5 118.376,59.074 118.371,59.097 118.371,59.498 118.228,59.498 118.13,59.067 117.998,58.477 110.427,24.626 95.772,24.626 109.834,70.458 125.093,70.458 134.004,36.366 134.153,35.805 134.263,35.393 134.276,35.393 134.276,35.395 134.376,35.823 134.508,36.401 142.512,70.458 157.68,70.458 171.688,24.626 158.335,24.626 150.942,58.472 150.812,59.061 "
   id="polygon24"
   style="fill:#f0f0f0;display:none"
   transform="translate(0,-42)" />
<path
   display="none"
   d="m 355.061,1.423 c -2.236,-0.537 -4.13,-1.047 -5.623,-1.513 -1.516,-0.468 -2.691,-0.906 -3.486,-1.301 -2.359,-1.114 -2.854,-2.742 -2.854,-3.914 0,-1.896 0.91,-3.366 2.628,-4.256 1.479,-0.762 3.641,-1.134 6.608,-1.134 2.305,0 4.755,0.261 7.295,0.774 1.612,0.376 3.082,0.829 4.379,1.355 l 0.687,-8.135 c -0.65,-0.191 -1.335,-0.365 -2.041,-0.516 -1.144,-0.244 -2.409,-0.491 -3.793,-0.738 -2.758,-0.48 -5.493,-0.724 -8.138,-0.724 -5.815,0 -10.699,1.282 -14.519,3.815 -3.691,2.453 -5.485,5.81 -5.485,10.264 0,3.996 1.153,6.847 3.529,8.715 1.263,0.998 2.688,1.836 4.228,2.493 1.572,0.672 3.328,1.232 5.222,1.662 1.882,0.419 3.526,0.875 4.886,1.347 1.346,0.469 2.454,0.942 3.308,1.417 1.856,1.117 2.8,2.645 2.8,4.533 0,2.249 -0.987,3.9 -2.852,4.776 -1.656,0.784 -3.76,1.182 -6.26,1.182 -3.439,0 -6.712,-0.533 -9.722,-1.582 l -2.306,-0.805 -1.221,-0.425 c -0.139,-0.05 -0.274,-0.096 -0.403,-0.144 l -0.753,8.881 c 0.673,0.226 1.405,0.439 2.184,0.641 1.145,0.291 2.442,0.535 3.978,0.742 1.473,0.208 2.98,0.369 4.48,0.487 1.482,0.124 3.041,0.185 4.63,0.185 6.71,0 11.982,-1.317 15.668,-3.912 3.669,-2.578 5.453,-6.098 5.453,-10.762 0,-3.447 -0.972,-6.28 -2.889,-8.422 -1.963,-2.184 -5.2,-3.864 -9.618,-4.986 z"
   id="path26"
   inkscape:connector-curvature="0"
   style="fill:#f59824;display:none" />
<path
   display="none"
   d="m 321.887,-39.758 c -1.08,0.823 -2.164,1.808 -3.222,2.925 -1.062,1.122 -2.038,2.346 -2.896,3.635 -0.848,1.271 -1.54,2.62 -2.063,4.01 -0.5,1.338 -0.755,2.704 -0.755,4.065 v 12.33 c -9.713,-8.651 -20.166,-6.436 -25.315,-4.485 -0.27,0.093 -0.552,0.174 -0.815,0.275 -0.691,0.271 -1.354,0.612 -2.005,0.99 -0.278,0.15 -0.429,0.239 -0.429,0.239 l 0.037,0.01 c -1.426,0.887 -2.754,2.005 -3.947,3.397 -3.691,4.198 -5.561,9.913 -5.561,16.981 0,7.618 1.876,13.755 5.581,18.24 3.686,4.415 8.869,6.652 15.413,6.652 0.333,0 0.663,-0.011 0.991,-0.027 l -0.003,0.003 c 0,0 10.967,0.102 17.851,-7.734 v 6.706 h 10.954 V -42 c -0.246,0.089 -0.511,0.202 -0.789,0.333 -0.963,0.465 -1.981,1.107 -3.027,1.909 z m -12.535,56.001 c -2.353,2.728 -5.375,4.11 -8.982,4.11 -3.801,0 -6.842,-1.472 -9.042,-4.376 -2.1,-2.855 -3.165,-6.575 -3.165,-11.056 0,-4.255 1.103,-7.769 3.283,-10.45 2.274,-2.691 5.298,-4.054 8.989,-4.054 3.882,0 6.998,1.523 9.271,4.561 0.47,0.72 0.901,1.433 1.307,2.138 0.438,0.759 0.78,1.545 1.012,2.327 0.31,0.975 0.537,2.036 0.674,3.159 0.129,1.08 0.194,2.216 0.194,3.373 -10e-4,4.108 -1.195,7.563 -3.541,10.268 z"
   id="path28"
   inkscape:connector-curvature="0"
   style="fill:#f0f0f0;display:none" />
<path
   display="none"
   d="m 267.323,-39.697 c -1.08,0.825 -2.163,1.81 -3.223,2.929 -1.052,1.113 -2.027,2.335 -2.895,3.634 -0.848,1.275 -1.541,2.633 -2.059,4.034 -0.504,1.356 -0.76,2.715 -0.76,4.037 v 53.521 h 12.693 v -70.376 c -0.231,0.087 -0.477,0.193 -0.736,0.317 -0.945,0.457 -1.96,1.095 -3.02,1.904 z"
   id="path30"
   inkscape:connector-curvature="0"
   style="fill:#f0f0f0;display:none" />
<g
   display="none"
   id="g32"
   style="display:none"
   transform="translate(0,-42)">
	<g
   display="inline"
   id="g34"
   style="display:inline">
		<g
   display="none"
   id="g36"
   style="display:none">
			<g
   display="inline"
   id="g38"
   style="display:inline">
				<path
   d="m 596.225,20.661 c 0,-1.333 1.019,-2.297 2.402,-2.297 1.409,0 2.426,0.964 2.426,2.347 0,1.385 -0.992,2.324 -2.426,2.324 -1.384,0 -2.402,-0.939 -2.402,-2.349 v -0.025 z"
   id="path40"
   inkscape:connector-curvature="0"
   style="fill:#f0f0f0" />
			</g>
		</g>
		<g
   display="none"
   id="g42"
   style="display:none">
			<g
   display="inline"
   id="g44"
   style="display:inline">
				<path
   d="m 596.823,33.711 c -0.312,-0.704 -0.599,-2.036 -0.599,-3.549 0,-4.124 2.531,-6.76 6.552,-6.76 3.732,0 6.785,2.559 6.785,7.308 0,1.043 -0.182,2.194 -0.496,3.029 l -2.948,-0.627 c 0.209,-0.469 0.392,-1.175 0.392,-2.218 0,-2.087 -1.488,-3.445 -3.579,-3.419 -2.347,0 -3.572,1.566 -3.572,3.498 0,0.939 0.155,1.67 0.416,2.27 l -2.951,0.468 z"
   id="path46"
   inkscape:connector-curvature="0"
   style="fill:#f0f0f0" />
			</g>
		</g>
		<g
   display="none"
   id="g48"
   style="display:none">
			<g
   display="inline"
   id="g50"
   style="display:inline">
				<path
   d="m 603.035,46.925 c -4.672,0 -6.811,-3.315 -6.811,-6.735 0,-3.731 2.452,-6.602 6.577,-6.602 4.122,0 6.76,2.716 6.76,6.813 10e-4,3.915 -2.689,6.524 -6.526,6.524 z m -0.129,-9.239 c -2.193,0 -3.836,0.914 -3.836,2.612 0,1.538 1.538,2.531 3.836,2.531 1.903,0 3.835,-0.73 3.835,-2.531 0,-1.907 -1.956,-2.612 -3.835,-2.612 z"
   id="path52"
   inkscape:connector-curvature="0"
   style="fill:#f0f0f0" />
			</g>
		</g>
		<g
   display="none"
   id="g54"
   style="display:none">
			<g
   display="inline"
   id="g56"
   style="display:inline">
				<path
   d="m 605.203,48.079 c 1.593,0 2.947,-0.051 4.071,-0.104 v 3.341 l -1.723,0.185 v 0.077 c 0.81,0.549 2.01,1.67 2.01,3.86 0,1.646 -0.834,2.95 -2.168,3.499 v 0.053 c 0.681,0.471 1.178,1.044 1.541,1.643 0.416,0.704 0.627,1.487 0.627,2.429 0,2.452 -1.724,4.306 -5.533,4.306 h -7.517 v -3.863 h 6.942 c 1.854,0 2.921,-0.599 2.921,-1.879 0,-0.914 -0.623,-1.566 -1.383,-1.828 -0.285,-0.103 -0.702,-0.155 -1.017,-0.155 h -7.464 v -3.861 h 7.151 c 1.616,0 2.712,-0.575 2.712,-1.828 0,-1.02 -0.78,-1.618 -1.434,-1.854 -0.312,-0.129 -0.678,-0.156 -0.991,-0.156 h -7.438 v -3.862 h 8.693 z"
   id="path58"
   inkscape:connector-curvature="0"
   style="fill:#f0f0f0" />
			</g>
		</g>
	</g>
</g>
<rect
   x="37.833"
   y="-14.476"
   display="none"
   width="7.7670002"
   height="7.7670002"
   id="rect60"
   style="fill:#88191a;display:none" />
<rect
   x="37.833"
   y="-5.2890015"
   display="none"
   width="7.7670002"
   height="7.7670002"
   id="rect62"
   style="fill:#a8338d;display:none" />
<rect
   x="37.833"
   y="3.7290001"
   display="none"
   width="7.7670002"
   height="7.7680001"
   id="rect64"
   style="fill:#da88b8;display:none" />
<rect
   x="37.833"
   y="12.916"
   display="none"
   width="7.7670002"
   height="7.7680001"
   id="rect66"
   style="fill:#da88b8;display:none" />
<rect
   x="37.833"
   y="21.963001"
   display="none"
   width="7.7670002"
   height="7.7670002"
   id="rect68"
   style="fill:#aad4ed;display:none" />
<rect
   x="37.833"
   y="31.150002"
   display="none"
   width="7.7670002"
   height="7.7670002"
   id="rect70"
   style="fill:#3185cd;display:none" />
<rect
   x="47.130001"
   y="-23.686001"
   display="none"
   width="7.7670002"
   height="7.7670002"
   id="rect72"
   style="fill:#da88b8;display:none" />
<rect
   x="47.130001"
   y="-14.499001"
   display="none"
   width="7.7670002"
   height="7.7670002"
   id="rect74"
   style="fill:#a8338d;display:none" />
<rect
   x="47.130001"
   y="-5.480999"
   display="none"
   width="7.7670002"
   height="7.7670002"
   id="rect76"
   style="fill:#da88b8;display:none" />
<rect
   x="47.130001"
   y="3.7060013"
   display="none"
   width="7.7670002"
   height="7.7670002"
   id="rect78"
   style="fill:#aad4ed;display:none" />
<rect
   x="47.130001"
   y="12.751999"
   display="none"
   width="7.7670002"
   height="7.7680001"
   id="rect80"
   style="fill:#3185cd;display:none" />
<rect
   x="47.130001"
   y="21.939999"
   display="none"
   width="7.7670002"
   height="7.7659998"
   id="rect82"
   style="fill:#3185cd;display:none" />
<rect
   x="56.362"
   y="-32.875"
   display="none"
   width="7.7670002"
   height="7.7670002"
   id="rect84"
   style="fill:#568b3d;display:none" />
<rect
   x="56.362"
   y="-23.688"
   display="none"
   width="7.7670002"
   height="7.7670002"
   id="rect86"
   style="fill:#aed479;display:none" />
<rect
   x="56.362"
   y="-14.67"
   display="none"
   width="7.7670002"
   height="7.7670002"
   id="rect88"
   style="fill:#b2d2f4;display:none" />
<rect
   x="56.362"
   y="-5.4830017"
   display="none"
   width="7.7670002"
   height="7.7670002"
   id="rect90"
   style="fill:#aad4ed;display:none" />
<rect
   x="56.362"
   y="3.5639992"
   display="none"
   width="7.7670002"
   height="7.7680001"
   id="rect92"
   style="fill:#034284;display:none" />
<rect
   x="56.362"
   y="12.75"
   display="none"
   width="7.7670002"
   height="7.7680001"
   id="rect94"
   style="fill:#034284;display:none" />
<rect
   x="65.594002"
   y="-23.688"
   display="none"
   width="7.7670002"
   height="7.7670002"
   id="rect96"
   style="fill:#c4be33;display:none" />
<rect
   x="65.594002"
   y="-14.67"
   display="none"
   width="7.7670002"
   height="7.7670002"
   id="rect98"
   style="fill:#aed479;display:none" />
<rect
   x="65.594002"
   y="-5.4830017"
   display="none"
   width="7.7670002"
   height="7.7670002"
   id="rect100"
   style="fill:#aed479;display:none" />
<rect
   x="74.976997"
   y="-14.67"
   display="none"
   width="7.7670002"
   height="7.7670002"
   id="rect102"
   style="fill:#528d2e;display:none" />
<rect
   x="74.976997"
   y="-5.4830017"
   display="none"
   width="7.7670002"
   height="7.7670002"
   id="rect104"
   style="fill:#c4be33;display:none" />
<rect
   x="65.594002"
   y="3.5639992"
   display="none"
   width="7.7670002"
   height="7.7680001"
   id="rect106"
   style="fill:#528d2e;display:none" />
<rect
   x="9.5550003"
   y="-23.688"
   display="none"
   width="7.7680001"
   height="7.7670002"
   id="rect108"
   style="fill:#edcd96;display:none" />
<rect
   x="9.5550003"
   y="-14.67"
   display="none"
   width="7.7680001"
   height="7.7670002"
   id="rect110"
   style="fill:#f9cbca;display:none" />
<rect
   x="9.5550003"
   y="-5.4830017"
   display="none"
   width="7.7680001"
   height="7.7670002"
   id="rect112"
   style="fill:#ea8b87;display:none" />
<rect
   y="-14.67"
   display="none"
   width="7.7670002"
   height="7.7670002"
   id="rect114"
   x="0"
   style="fill:#edcd96;display:none" />
<rect
   y="-5.4830017"
   display="none"
   width="7.7670002"
   height="7.7670002"
   id="rect116"
   x="0"
   style="fill:#ea8b87;display:none" />
<rect
   x="9.5550003"
   y="3.5639992"
   display="none"
   width="7.7680001"
   height="7.7680001"
   id="rect118"
   style="fill:#ec4147;display:none" />
<rect
   x="19.068001"
   y="-32.875"
   display="none"
   width="7.7670002"
   height="7.7670002"
   id="rect120"
   style="fill:#b38e5c;display:none" />
<rect
   x="19.068001"
   y="-23.688"
   display="none"
   width="7.7670002"
   height="7.7670002"
   id="rect122"
   style="fill:#f9cbca;display:none" />
<rect
   x="19.068001"
   y="-14.67"
   display="none"
   width="7.7670002"
   height="7.7670002"
   id="rect124"
   style="fill:#ea8b87;display:none" />
<rect
   x="19.068001"
   y="-5.4830017"
   display="none"
   width="7.7670002"
   height="7.7670002"
   id="rect126"
   style="fill:#ec4147;display:none" />
<rect
   x="19.068001"
   y="3.5639992"
   display="none"
   width="7.7670002"
   height="7.7680001"
   id="rect128"
   style="fill:#8b181c;display:none" />
<rect
   x="19.068001"
   y="12.75"
   display="none"
   width="7.7670002"
   height="7.7680001"
   id="rect130"
   style="fill:#a8338d;display:none" />
<rect
   x="28.493999"
   y="-23.686001"
   display="none"
   width="7.7670002"
   height="7.7670002"
   id="rect132"
   style="fill:#f9cbca;display:none" />
<rect
   x="28.493999"
   y="-14.499001"
   display="none"
   width="7.7670002"
   height="7.7670002"
   id="rect134"
   style="fill:#ec4147;display:none" />
<rect
   x="28.493999"
   y="-5.480999"
   display="none"
   width="7.7670002"
   height="7.7670002"
   id="rect136"
   style="fill:#88191a;display:none" />
<rect
   x="28.493999"
   y="3.7060013"
   display="none"
   width="7.7670002"
   height="7.7670002"
   id="rect138"
   style="fill:#88191a;display:none" />
<rect
   x="28.493999"
   y="12.751999"
   display="none"
   width="7.7670002"
   height="7.7680001"
   id="rect140"
   style="fill:#a8338d;display:none" />
<rect
   x="28.493999"
   y="21.939999"
   display="none"
   width="7.7670002"
   height="7.7659998"
   id="rect142"
   style="fill:#da88b8;display:none" />
<path
   d="m 284.63213,10.583622 c -4.24813,-0.6744633 -8.00361,0.344793 -10.23047,1.216454 -0.41611,0.173607 -7.07261,3.086199 -7.07261,11.375747 v 17.003131 h 7.75727 V 26.953423 c 0,-0.104043 0.007,-0.201432 0.009,-0.303659 l -0.007,0.0085 c 0,0 -0.45995,-9.124309 6.53919,-9.124309 4.69327,0.01391 5.70947,3.975401 5.89344,6.40105 v 16.244586 h 7.91039 V 20.967334 c 0,0 0.10063,-8.433515 -10.79907,-10.383712 z"
   id="path144"
   inkscape:connector-curvature="0"
   style="fill:#f59824" />
<rect
   x="256.81769"
   y="12.455787"
   width="7.4504447"
   height="27.723167"
   id="rect146"
   style="fill:#f59824" />
<rect
   x="256.81705"
   y="2.8221524"
   width="7.4905744"
   height="6.0762196"
   id="rect148"
   style="fill:#f59824" />
<path
   d="m 322.69682,17.373623 -0.60442,-0.715596 c -1.94903,-2.296806 -4.94081,-3.613067 -6.55648,-4.194981 -0.20682,-0.07742 -0.41858,-0.146385 -0.63034,-0.21353 -0.48896,-0.156669 -0.80567,-0.236515 -0.82727,-0.236515 -0.003,0 -0.003,0 -0.003,0 -0.97052,-0.228047 -1.98116,-0.346003 -3.00784,-0.346003 -4.03885,0 -7.24116,1.343483 -9.51247,3.98629 -2.31452,2.740802 -3.48753,6.452467 -3.48753,11.036398 0,4.25789 1.15756,7.728201 3.43813,10.315358 1.13104,1.292066 2.45407,2.233291 3.92773,2.794032 1.52306,0.5801 3.26651,0.921263 5.19395,1.014418 0.23954,0.01754 0.46242,0.02481 0.67849,0.02481 0.10434,0 0.20373,-0.0018 0.30622,-0.0061 0.3019,-0.01149 0.58836,-0.03811 0.85135,-0.08287 l 0.1136,-0.0121 0.0413,0.003 c 0.69392,-0.0375 4.3537,-0.428268 8.33945,-4.577882 l 0.59082,-0.616998 v 4.035287 c 0,1.287833 -0.25558,2.368183 -0.75998,3.212019 -0.49945,0.831737 -1.15016,1.498336 -1.93484,1.975603 -0.75319,0.461538 -1.60702,0.780926 -2.53616,0.949087 -0.61244,0.110092 -1.22487,0.182681 -1.82619,0.214135 l -0.526,6.437949 c 0.28399,0.0037 0.55687,0.0054 0.82604,0.0054 0.52415,0 1.0162,-0.0067 1.47367,-0.01935 0.90754,-0.0242 1.73851,-0.08045 2.47134,-0.163323 0.73097,-0.08347 1.40144,-0.204456 1.9972,-0.35568 0.59206,-0.148202 1.18042,-0.355682 1.75457,-0.615184 0.86185,-0.364149 1.71567,-0.906745 2.54419,-1.612663 0.84517,-0.721041 1.60825,-1.535236 2.27008,-2.420205 0.66058,-0.883759 1.19276,-1.815305 1.58356,-2.767417 0.37907,-0.927916 0.57415,-1.825588 0.57415,-2.667608 V 12.455787 h -6.76358 v 4.917836 z m -1.68666,12.494812 c -0.32967,0.949089 -0.82913,1.853413 -1.48046,2.676077 -1.3292,1.838291 -3.23688,2.768628 -5.66932,2.768628 -2.3065,0 -4.17529,-0.827504 -5.55821,-2.461943 -1.36439,-1.639884 -2.05522,-3.77518 -2.05522,-6.34661 0,-2.686965 0.65565,-4.9257 1.95274,-6.649663 1.32611,-1.782641 3.20478,-2.685152 5.58413,-2.685152 2.19414,0 4.0691,0.845046 5.57178,2.51094 1.45762,1.593306 2.19415,3.686864 2.19415,6.22563 0,1.468091 -0.18028,2.797661 -0.53959,3.962093 z"
   id="path150"
   inkscape:connector-curvature="0"
   style="fill:#f59824" />
<path
   d="m 368.86328,28.149914 c -0.002,-0.465167 -0.008,-0.918237 -0.021,-1.364048 -0.013,-0.479686 -0.016,-0.963606 -0.016,-1.442687 v -4.797461 c 0,-1.122694 -0.20311,-2.236313 -0.60688,-3.309406 -0.0852,-0.233492 -0.18459,-0.459725 -0.2877,-0.682328 -0.79332,-1.600565 -2.29476,-3.378971 -5.11986,-4.567599 -0.005,-6.05e-4 -0.007,-0.0018 -0.01,-0.0024 -0.6038,-0.249824 -1.19709,-0.451255 -1.78174,-0.61579 -0.0211,-0.0061 -0.0395,-0.0121 -0.0611,-0.01815 -0.0148,-0.0037 -0.0279,-0.0079 -0.0419,-0.01271 -4.23394,-1.164431 -7.8715,-0.265551 -9.98785,0.563768 -0.25065,0.07259 -0.50069,0.155459 -0.74578,0.261921 -0.79456,0.342978 -1.54651,0.806937 -2.23304,1.377962 -0.70566,0.588567 -1.35822,1.274524 -1.9404,2.042747 -0.59514,0.783346 -1.10818,1.612663 -1.52985,2.460732 -0.41796,0.842021 -0.74393,1.711263 -0.97545,2.584134 -0.22347,0.856538 -0.33707,1.673758 -0.33707,2.427463 v 3.111604 c 0,2.317976 0.33152,4.40972 0.98531,6.215952 0.64146,1.770542 1.6558,3.305778 3.01525,4.567599 2.68619,2.562356 6.47315,3.862286 11.25654,3.862286 1.95276,0 3.75486,-0.146991 5.35817,-0.436133 0.78468,-0.143966 1.55949,-0.310314 2.30157,-0.494203 0.52291,-0.129449 1.03101,-0.286723 1.51379,-0.464564 v -5.144673 c -0.67046,0.263131 -1.53602,0.554088 -2.57937,0.865612 -1.77865,0.561952 -3.703,0.84565 -5.71501,0.84565 -3.17454,0 -5.59834,-0.835972 -7.21154,-2.487953 -0.92357,-0.980543 -1.59713,-2.427463 -2.00336,-4.302049 l -0.007,-0.03387 v -1.012602 h 18.78045 z m -18.99592,-4.04436 0.0642,-0.38895 0.087,-0.522029 c 0.26794,-1.680412 0.78777,-3.065632 1.54466,-4.110295 1.30389,-1.841315 3.09798,-2.775885 5.33287,-2.775885 2.08857,0 3.72645,0.613973 4.87168,1.824983 1.15695,1.220083 1.75765,2.974293 1.78421,5.210608 l 0.01,0.493598 0.004,0.262526 h -3.64126 v 0.0054 h -10.05637 z"
   id="path152"
   inkscape:connector-curvature="0"
   style="fill:#f59824" />
<path
   d="m 338.03419,-1.0473929 c -0.66058,0.49480809 -1.33043,1.09244917 -1.98917,1.77175165 -0.64948,0.67325365 -1.25141,1.41244125 -1.78729,2.19820625 -0.52539,0.773062 -0.95261,1.5927014 -1.27303,2.4401661 -0.3093,0.8244785 -0.46796,1.6465375 -0.46796,2.4419808 V 40.179558 h 7.83507 V -2.3908759 c -0.14323,0.052624 -0.29511,0.117956 -0.45254,0.1917538 -0.58279,0.2746247 -1.20943,0.6623654 -1.86508,1.1517292 z"
   id="path154"
   inkscape:connector-curvature="0"
   style="fill:#f59824" />
<path
   d="m 392.55494,26.843936 c -1.21438,-1.324126 -3.21405,-2.340358 -5.93913,-3.019055 -1.37982,-0.324832 -2.54789,-0.631516 -3.47333,-0.913399 -0.93655,-0.281883 -1.66136,-0.548039 -2.15093,-0.788185 -1.45515,-0.671438 -1.76074,-1.657426 -1.76074,-2.365762 0,-1.146287 0.55872,-2.036094 1.62059,-2.576875 0.91248,-0.459723 2.24786,-0.684141 4.08022,-0.684141 1.41687,0 2.92942,0.157273 4.50557,0.469402 1.00015,0.227443 1.90707,0.502672 2.70163,0.819035 l 0.4229,-4.920861 c -0.38647,-0.112511 -0.80938,-0.216554 -1.2582,-0.313944 -0.70751,-0.146989 -1.48664,-0.295191 -2.34108,-0.444601 -1.70826,-0.290957 -3.39987,-0.438552 -5.02479,-0.438552 -3.58816,0 -6.60279,0.776086 -8.96424,2.306483 -2.27995,1.48503 -3.38814,3.515679 -3.38814,6.210507 0,2.418391 0.71369,4.14175 2.17809,5.272308 0.78468,0.60369 1.66258,1.110596 2.61211,1.50741 0.96865,0.405283 2.05522,0.745238 3.22328,1.006553 1.16438,0.255873 2.17933,0.529288 3.01587,0.813591 0.82543,0.280674 1.5107,0.568001 2.0435,0.858353 1.14708,0.675673 1.72865,1.596331 1.72865,2.740196 0,1.339853 -0.62664,2.366974 -1.7589,2.889607 -1.02114,0.474241 -2.32193,0.714991 -3.86351,0.714991 -2.12684,0 -4.14689,-0.32241 -6.00517,-0.956951 l -1.84656,-0.63333 -0.33092,-0.112511 c -0.0864,-0.02843 -0.16731,-0.05626 -0.24695,-0.0853 l -0.46673,5.370905 c 0.40252,0.133683 0.85629,0.264342 1.34896,0.388951 0.69515,0.173607 1.49958,0.321202 2.45837,0.448836 0.89086,0.124004 1.82187,0.222603 2.76213,0.295796 0.92173,0.0738 1.88421,0.110696 2.85966,0.110696 4.14565,0 7.39921,-0.796048 9.67545,-2.367578 2.26514,-1.558222 3.3653,-3.687469 3.3653,-6.508723 -6.1e-4,-2.083274 -0.60008,-3.79756 -1.78296,-5.093861 z"
   id="path156"
   inkscape:connector-curvature="0"
   style="fill:#f59824" />
<path
   d="m 154.31787,12.717104 c -1.77,-0.697449 -3.81227,-1.049502 -6.06876,-1.049502 -2.25773,0 -4.3068,0.352657 -6.08668,1.049502 -1.77061,0.689587 -3.36528,1.722755 -4.74388,3.071077 -2.7084,2.607119 -4.08083,6.162115 -4.08083,10.565182 0,4.380684 1.37243,7.923583 4.08207,10.531306 2.6868,2.608329 6.33053,3.930034 10.82932,3.930034 4.49694,0 8.1277,-1.322915 10.79413,-3.930638 2.70656,-2.611959 4.07897,-6.154252 4.07897,-10.530702 0,-4.400647 -1.37241,-7.956249 -4.08391,-10.569416 -1.36687,-1.338644 -2.95474,-2.371208 -4.72043,-3.066843 z m -0.48216,20.358511 c -1.30266,1.757839 -3.18379,2.648856 -5.58722,2.648856 -2.37442,0 -4.26358,-0.887993 -5.61624,-2.637363 -1.27363,-1.653192 -1.92064,-3.918541 -1.92064,-6.733745 0,-2.885978 0.63404,-5.176128 1.88608,-6.814803 1.35451,-1.720939 3.25478,-2.593207 5.6508,-2.593207 2.39849,0 4.28889,0.875896 5.61995,2.600466 1.24645,1.635044 1.87865,3.923985 1.87865,6.806939 0,2.813389 -0.6433,5.077529 -1.91138,6.722857 z"
   id="path158"
   inkscape:connector-curvature="0"
   style="fill:#5a5149" />
<path
   d="m 173.48296,12.369287 c -0.18029,0.05929 -0.35808,0.124004 -0.53589,0.198407 -0.24139,0.09618 -0.38401,0.159694 -0.38401,0.159694 l 0.0136,0.0042 c -0.35561,0.169372 -0.70874,0.356286 -1.05447,0.583728 -1.11621,0.728905 -2.1213,1.644118 -2.9887,2.71842 -0.86371,1.068859 -1.56504,2.244784 -2.08548,3.496927 -0.50748,1.229762 -0.76431,2.429278 -0.76431,3.56286 V 40.17957 h 7.75667 V 28.676783 c 0,-1.801997 0.25373,-3.433412 0.75319,-4.847063 0.51056,-1.452969 1.28537,-2.652485 2.30218,-3.567094 1.02545,-0.921263 2.31143,-1.523139 3.82462,-1.789295 0.48895,-0.08408 1.00322,-0.127029 1.52614,-0.127029 0.81185,0 1.69406,0.100414 2.6263,0.299426 l 0.36981,-6.712574 c -5.16925,-1.331385 -9.53345,-0.197803 -11.35963,0.436133 z"
   id="path160"
   inkscape:connector-curvature="0"
   style="fill:#5a5149" />
<polygon
   points="142.481,24.626 126.635,24.626 118.515,58.5 118.376,59.074 118.371,59.097 118.371,59.498 118.228,59.498 118.13,59.067 117.998,58.477 110.427,24.626 95.772,24.626 109.834,70.458 125.093,70.458 134.004,36.366 134.153,35.805 134.263,35.393 134.276,35.393 134.276,35.395 134.376,35.823 134.508,36.401 142.512,70.458 157.68,70.458 171.688,24.626 158.335,24.626 150.942,58.472 150.812,59.061 150.738,59.402 150.738,59.498 150.659,59.498 150.557,59.07 150.422,58.494 "
   id="polygon162"
   style="fill:#5a5149"
   transform="matrix(0.61737198,0,0,0.60489988,28.169643,-2.4404774)" />
<path
   d="m 247.37435,23.826091 c -1.38044,-0.324832 -2.54974,-0.63333 -3.47148,-0.915214 -0.93594,-0.283093 -1.66134,-0.54804 -2.15216,-0.786975 -1.45638,-0.673858 -1.76197,-1.658635 -1.76197,-2.367577 0,-1.14689 0.5618,-2.036094 1.62245,-2.574455 0.91309,-0.460933 2.24785,-0.685956 4.07958,-0.685956 1.42306,0 2.93562,0.157878 4.50374,0.468192 0.9952,0.227443 1.90273,0.501462 2.70347,0.81964 l 0.42413,-4.920861 c -0.40129,-0.115536 -0.82419,-0.220788 -1.26006,-0.312129 -0.70627,-0.147594 -1.48724,-0.297005 -2.34169,-0.446416 -1.7027,-0.290351 -3.39122,-0.437947 -5.02417,-0.437947 -3.59001,0 -6.60527,0.775482 -8.96363,2.307694 -2.27871,1.483818 -3.38628,3.514467 -3.38628,6.208691 0,2.417181 0.71183,4.14175 2.17871,5.271703 0.77975,0.603691 1.6595,1.110596 2.61025,1.508016 0.97051,0.406492 2.05461,0.745237 3.22391,1.005344 1.1619,0.253452 2.17685,0.529286 3.01649,0.8148 0.83098,0.283698 1.51503,0.569815 2.04226,0.857142 1.14585,0.675673 1.72864,1.59996 1.72864,2.742012 0,1.36042 -0.60934,2.359109 -1.76074,2.889001 -1.02237,0.474242 -2.32132,0.714993 -3.86475,0.714993 -2.12314,0 -4.1438,-0.322413 -6.00209,-0.956953 l -1.42366,-0.486943 -0.75381,-0.257083 c -0.0857,-0.03025 -0.16917,-0.05807 -0.2488,-0.0871 l -0.46488,5.372116 c 0.41548,0.136706 0.86741,0.265551 1.34834,0.387741 0.70689,0.176025 1.50762,0.323621 2.4559,0.448835 0.90938,0.125819 1.83977,0.223209 2.76583,0.294586 0.91494,0.075 1.87743,0.111906 2.85843,0.111906 4.14256,0 7.39735,-0.796652 9.67299,-2.366367 2.26512,-1.559433 3.36652,-3.68868 3.36652,-6.509933 0,-2.085089 -0.60008,-3.798771 -1.78359,-5.094467 -1.2119,-1.321102 -3.21033,-2.337333 -5.93788,-3.01603 z"
   id="path164"
   inkscape:connector-curvature="0"
   style="fill:#f59824" />
<path
   d="m 226.89365,-1.0842922 c -0.66675,0.49783303 -1.33599,1.09365933 -1.98917,1.76933243 -0.65564,0.67869777 -1.25821,1.41909517 -1.78791,2.19881117 -0.52353,0.7688277 -0.95075,1.5848377 -1.27363,2.4256486 -0.30868,0.8093559 -0.46612,1.6356492 -0.46612,2.4589179 v 7.4584161 c -5.99654,-5.2329892 -12.44992,-3.893136 -15.62877,-2.712976 -0.1667,0.05626 -0.34079,0.105252 -0.50316,0.166347 -0.42661,0.163928 -0.83592,0.370199 -1.23783,0.598851 -0.17163,0.09074 -0.26486,0.144571 -0.26486,0.144571 l 0.0228,0.0061 c -0.88037,0.536546 -1.70025,1.212825 -2.43677,2.054846 -2.27873,2.539369 -3.4332,5.996372 -3.4332,10.271804 0,4.608127 1.15819,8.320398 3.44556,11.033374 2.27562,2.670633 5.47547,4.023794 9.51554,4.023794 0.20559,0 0.40932,-0.0067 0.61182,-0.01633 l -0.002,0.0018 c 0,0 6.77071,0.0617 11.02071,-4.678296 v 4.05646 h 6.7627 V -2.4404884 c -0.15188,0.053837 -0.31549,0.1221902 -0.48711,0.2014314 -0.59454,0.2812791 -1.22303,0.6696243 -1.86879,1.1547537 z m -7.73876,33.8749992 c -1.45268,1.650167 -3.31836,2.486139 -5.54523,2.486139 -2.34663,0 -4.22406,-0.890413 -5.58227,-2.647043 -1.29649,-1.726989 -1.95399,-3.977216 -1.95399,-6.687773 0,-2.573849 0.68096,-4.699467 2.02683,-6.321203 1.40391,-1.627786 3.27083,-2.452265 5.54956,-2.452265 2.39664,0 4.32037,0.921263 5.72365,2.758949 0.29017,0.435527 0.55626,0.866821 0.80691,1.293276 0.27041,0.459119 0.48155,0.934571 0.62478,1.407602 0.19139,0.589778 0.33153,1.231576 0.41611,1.910879 0.0796,0.653291 0.11978,1.340458 0.11978,2.040327 -6.3e-4,2.484929 -0.73777,4.574857 -2.18613,6.211112 z"
   id="path166"
   inkscape:connector-curvature="0"
   style="fill:#5a5149" />
<path
   d="m 193.20737,-1.0473929 c -0.66676,0.4990424 -1.33537,1.0948687 -1.98979,1.77175165 -0.64947,0.67325365 -1.25141,1.41244125 -1.78729,2.19820625 -0.52353,0.7712474 -0.95137,1.5927014 -1.27117,2.4401661 -0.31115,0.8202443 -0.46921,1.6423032 -0.46921,2.4419808 V 40.179558 h 7.83631 V -2.3908759 c -0.14262,0.052624 -0.29449,0.116746 -0.45439,0.1917538 -0.5834,0.2764391 -1.21004,0.6623654 -1.86446,1.1517292 z"
   id="path168"
   inkscape:connector-curvature="0"
   style="fill:#5a5149" />
<g
   id="g170"
   transform="matrix(0.61737198,0,0,0.60489988,28.169643,-2.4404774)">
	<g
   id="g172">
		<path
   d="m 596.225,20.661 c 0,-1.333 1.019,-2.297 2.402,-2.297 1.409,0 2.426,0.964 2.426,2.347 0,1.385 -0.992,2.324 -2.426,2.324 -1.384,0 -2.402,-0.939 -2.402,-2.349 v -0.025 z"
   id="path174"
   inkscape:connector-curvature="0"
   style="fill:#5a5149" />
		<path
   d="m 596.823,33.711 c -0.312,-0.704 -0.599,-2.036 -0.599,-3.549 0,-4.124 2.531,-6.76 6.552,-6.76 3.732,0 6.785,2.559 6.785,7.308 0,1.043 -0.182,2.194 -0.496,3.029 l -2.948,-0.627 c 0.209,-0.469 0.392,-1.175 0.392,-2.218 0,-2.087 -1.488,-3.445 -3.579,-3.419 -2.347,0 -3.572,1.566 -3.572,3.498 0,0.939 0.155,1.67 0.416,2.27 l -2.951,0.468 z"
   id="path176"
   inkscape:connector-curvature="0"
   style="fill:#5a5149" />
		<path
   d="m 603.035,46.925 c -4.672,0 -6.811,-3.315 -6.811,-6.735 0,-3.731 2.452,-6.602 6.577,-6.602 4.122,0 6.76,2.716 6.76,6.813 10e-4,3.915 -2.689,6.524 -6.526,6.524 z m -0.129,-9.239 c -2.193,0 -3.836,0.914 -3.836,2.612 0,1.538 1.538,2.531 3.836,2.531 1.903,0 3.835,-0.73 3.835,-2.531 0,-1.907 -1.956,-2.612 -3.835,-2.612 z"
   id="path178"
   inkscape:connector-curvature="0"
   style="fill:#5a5149" />
		<path
   d="m 605.203,48.079 c 1.593,0 2.947,-0.051 4.071,-0.104 v 3.341 l -1.723,0.185 v 0.077 c 0.81,0.549 2.01,1.67 2.01,3.86 0,1.646 -0.834,2.95 -2.168,3.499 v 0.053 c 0.681,0.471 1.178,1.044 1.541,1.643 0.416,0.704 0.627,1.487 0.627,2.429 0,2.452 -1.724,4.306 -5.533,4.306 h -7.517 v -3.863 h 6.942 c 1.854,0 2.921,-0.599 2.921,-1.879 0,-0.914 -0.623,-1.566 -1.383,-1.828 -0.285,-0.103 -0.702,-0.155 -1.017,-0.155 h -7.464 v -3.861 h 7.151 c 1.616,0 2.712,-0.575 2.712,-1.828 0,-1.02 -0.78,-1.618 -1.434,-1.854 -0.312,-0.129 -0.678,-0.156 -0.991,-0.156 h -7.438 v -3.862 h 8.693 z"
   id="path180"
   inkscape:connector-curvature="0"
   style="fill:#5a5149" />
	</g>
</g>
<rect
   x="51.526676"
   y="14.208788"
   width="4.7951283"
   height="4.6982579"
   id="rect182"
   style="fill:#88191a" />
<rect
   x="51.526676"
   y="19.766001"
   width="4.7951283"
   height="4.6982579"
   id="rect184"
   style="fill:#a8338d" />
<rect
   x="51.526676"
   y="25.220989"
   width="4.7951283"
   height="4.6988626"
   id="rect186"
   style="fill:#da88b8" />
<rect
   x="51.526676"
   y="30.778204"
   width="4.7951283"
   height="4.6988626"
   id="rect188"
   style="fill:#da88b8" />
<rect
   x="51.526676"
   y="36.250736"
   width="4.7951283"
   height="4.6982579"
   id="rect190"
   style="fill:#aad4ed" />
<rect
   x="51.526676"
   y="41.807953"
   width="4.7951283"
   height="4.6982579"
   id="rect192"
   style="fill:#3185cd" />
<rect
   x="57.26638"
   y="8.6376581"
   width="4.7951283"
   height="4.6982579"
   id="rect194"
   style="fill:#da88b8" />
<rect
   x="57.26638"
   y="14.194874"
   width="4.7951283"
   height="4.6982579"
   id="rect196"
   style="fill:#a8338d" />
<rect
   x="57.26638"
   y="19.649862"
   width="4.7951283"
   height="4.6982579"
   id="rect198"
   style="fill:#da88b8" />
<rect
   x="57.26638"
   y="25.207079"
   width="4.7951283"
   height="4.6982579"
   id="rect200"
   style="fill:#aad4ed" />
<rect
   x="57.26638"
   y="30.678997"
   width="4.7951283"
   height="4.6988626"
   id="rect202"
   style="fill:#3185cd" />
<rect
   x="57.26638"
   y="36.23682"
   width="4.7951283"
   height="4.6976528"
   id="rect204"
   style="fill:#3185cd" />
<rect
   x="62.965965"
   y="3.0792344"
   width="4.7951283"
   height="4.6982579"
   id="rect206"
   style="fill:#568b3d" />
<rect
   x="62.965965"
   y="8.6364498"
   width="4.7951283"
   height="4.6982579"
   id="rect208"
   style="fill:#aed479" />
<rect
   x="62.965965"
   y="14.091436"
   width="4.7951283"
   height="4.6982579"
   id="rect210"
   style="fill:#b2d2f4" />
<rect
   x="62.965965"
   y="19.648649"
   width="4.7951283"
   height="4.6982579"
   id="rect212"
   style="fill:#aad4ed" />
<rect
   x="62.965965"
   y="25.121181"
   width="4.7951283"
   height="4.6988626"
   id="rect214"
   style="fill:#034284" />
<rect
   x="62.965965"
   y="30.67779"
   width="4.7951283"
   height="4.6988626"
   id="rect216"
   style="fill:#034284" />
<rect
   x="68.665543"
   y="8.6364498"
   width="4.7951283"
   height="4.6982579"
   id="rect218"
   style="fill:#c4be33" />
<rect
   x="68.665543"
   y="14.091436"
   width="4.7951283"
   height="4.6982579"
   id="rect220"
   style="fill:#aed479" />
<rect
   x="68.665543"
   y="19.648649"
   width="4.7951283"
   height="4.6982579"
   id="rect222"
   style="fill:#aed479" />
<rect
   x="74.458344"
   y="14.091436"
   width="4.7951283"
   height="4.6982579"
   id="rect224"
   style="fill:#528d2e" />
<rect
   x="74.458344"
   y="19.648649"
   width="4.7951283"
   height="4.6982579"
   id="rect226"
   style="fill:#c4be33" />
<rect
   x="68.665543"
   y="25.121181"
   width="4.7951283"
   height="4.6988626"
   id="rect228"
   style="fill:#528d2e" />
<rect
   x="34.068634"
   y="8.6364498"
   width="4.7957454"
   height="4.6982579"
   id="rect230"
   style="fill:#edcd96" />
<rect
   x="34.068634"
   y="14.091436"
   width="4.7957454"
   height="4.6982579"
   id="rect232"
   style="fill:#f9cbca" />
<rect
   x="34.068634"
   y="19.648649"
   width="4.7957454"
   height="4.6982579"
   id="rect234"
   style="fill:#ea8b87" />
<rect
   y="14.091436"
   width="4.7951283"
   height="4.6982579"
   id="rect236"
   x="28.169643"
   style="fill:#edcd96" />
<rect
   y="19.648649"
   width="4.7951283"
   height="4.6982579"
   id="rect238"
   x="28.169643"
   style="fill:#ea8b87" />
<rect
   x="34.068634"
   y="25.121181"
   width="4.7957454"
   height="4.6988626"
   id="rect240"
   style="fill:#ec4147" />
<rect
   x="39.941692"
   y="3.0792344"
   width="4.7951283"
   height="4.6982579"
   id="rect242"
   style="fill:#b38e5c" />
<rect
   x="39.941692"
   y="8.6364498"
   width="4.7951283"
   height="4.6982579"
   id="rect244"
   style="fill:#f9cbca" />
<rect
   x="39.941692"
   y="14.091436"
   width="4.7951283"
   height="4.6982579"
   id="rect246"
   style="fill:#ea8b87" />
<rect
   x="39.941692"
   y="19.648649"
   width="4.7951283"
   height="4.6982579"
   id="rect248"
   style="fill:#ec4147" />
<rect
   x="39.941692"
   y="25.121181"
   width="4.7951283"
   height="4.6988626"
   id="rect250"
   style="fill:#8b181c" />
<rect
   x="39.941692"
   y="30.67779"
   width="4.7951283"
   height="4.6988626"
   id="rect252"
   style="fill:#a8338d" />
<rect
   x="45.761036"
   y="8.6376581"
   width="4.7951283"
   height="4.6982579"
   id="rect254"
   style="fill:#f9cbca" />
<rect
   x="45.761036"
   y="14.194874"
   width="4.7951283"
   height="4.6982579"
   id="rect256"
   style="fill:#ec4147" />
<rect
   x="45.761036"
   y="19.649862"
   width="4.7951283"
   height="4.6982579"
   id="rect258"
   style="fill:#88191a" />
<rect
   x="45.761036"
   y="25.207079"
   width="4.7951283"
   height="4.6982579"
   id="rect260"
   style="fill:#88191a" />
<rect
   x="45.761036"
   y="30.678997"
   width="4.7951283"
   height="4.6988626"
   id="rect262"
   style="fill:#a8338d" />
<rect
   x="45.761036"
   y="36.23682"
   width="4.7951283"
   height="4.6976528"
   id="rect264"
   style="fill:#da88b8" />
</svg>